<svg xmlns="http://www.w3.org/2000/svg" width="18.4" height="14.752" viewBox="0 0 18.4 14.752"><defs><style>.a{fill:#051346;}</style></defs><g transform="translate(-4.6 -13.6)"><path class="a" d="M16.232,22.273A2.432,2.432,0,1,1,13.8,19.841,2.439,2.439,0,0,1,16.232,22.273Zm5.005-6.1A1.764,1.764,0,0,1,23,17.937v8.531a1.881,1.881,0,0,1-1.885,1.885H6.485A1.881,1.881,0,0,1,4.6,26.468V17.937h0a1.764,1.764,0,0,1,1.763-1.763H9.889l.162-.709a2.4,2.4,0,0,1,2.33-1.864h2.8a2.385,2.385,0,0,1,2.33,1.864l.162.709ZM8.288,18.707A.892.892,0,1,0,7.4,19.6.9.9,0,0,0,8.288,18.707Zm9.869,3.567A4.357,4.357,0,1,0,13.8,26.65,4.346,4.346,0,0,0,18.157,22.273Z"/></g></svg>