<svg xmlns="http://www.w3.org/2000/svg" width="24" height="24.032" viewBox="0 0 24 24.032"><defs><style>.a{fill:#002c73;fill-rule:evenodd;}</style></defs><g transform="translate(-33.701 -33.356)"><g transform="translate(33.701 33.356)"><path class="a" d="M33.908,36.837c.36-1.261,2.432-3.063,2.432-3.063a2.2,2.2,0,0,1,2.072-.27c1.261.36,1.982,1.622,2.883,3.874.991,2.342.991,2.252.541,3.063a12.45,12.45,0,0,1-1.712,2.252c.541,1.531,6.756,7.657,8.288,8.2a25.513,25.513,0,0,1,2.162-1.712c.811-.45.811-.36,3.063.54,2.342.9,3.513,1.622,3.964,2.883a2.523,2.523,0,0,1-.36,2.162s-1.712,2.072-3.063,2.432C47.06,59.268,31.746,44.044,33.908,36.837Z" transform="translate(-33.701 -33.356)"/></g></g></svg>