<svg xmlns="http://www.w3.org/2000/svg" width="28.99" height="20.042" viewBox="0 0 28.99 20.042"><defs><style>.a{fill:#002c73;}</style></defs><g transform="translate(-7 -22)"><g transform="translate(7 22)"><path class="a" d="M12.712,23.086l10.42,8.2a2.662,2.662,0,0,0,1.755.48,2.674,2.674,0,0,0,1.759-.521l10.42-8.151C37.9,22.433,37.71,22,36.65,22H13.127C12.068,22,11.88,22.427,12.712,23.086Z" transform="translate(-10.334 -22)"/><path class="a" d="M8.582,30.227C7.734,29.587,7,29.933,7,30.992V45.175a1.958,1.958,0,0,0,.207.769l9.528-9.528Z" transform="translate(-7 -27.076)"/><path class="a" d="M69.481,30.227l-7.952,6.042,9.412,9.423A1.917,1.917,0,0,0,71,45.175V30.992C71,29.933,70.328,29.587,69.481,30.227Z" transform="translate(-42.013 -27.076)"/><path class="a" d="M25.71,52.065a2.748,2.748,0,0,1-3.078,0L20.7,50.595l-9.62,9.626a1.9,1.9,0,0,0,.558.089H36.709a1.9,1.9,0,0,0,.8-.185L27.84,50.451Z" transform="translate(-9.617 -40.268)"/></g></g></svg>