<svg xmlns="http://www.w3.org/2000/svg" width="24" height="24" viewBox="0 0 24 24"><defs><style>.a{fill:#002c73;}</style></defs><g transform="translate(-56.7 -431.011)"><g transform="translate(56.7 431.011)"><path class="a" d="M118.465,110.389h2.116A9.675,9.675,0,0,0,118.1,104.4l-1.49,1.49a.491.491,0,0,1-.357.144.518.518,0,0,1-.357-.144.5.5,0,0,1,0-.707l1.49-1.49a9.64,9.64,0,0,0-5.991-2.485v2.11a.5.5,0,1,1-1,0V101.2a9.675,9.675,0,0,0-5.991,2.485l1.49,1.49a.5.5,0,0,1,0,.707.491.491,0,0,1-.357.144.518.518,0,0,1-.357-.144l-1.49-1.49a9.64,9.64,0,0,0-2.485,5.991h2.116a.5.5,0,1,1,0,1H101.2a9.675,9.675,0,0,0,2.485,5.991l1.49-1.49a.5.5,0,0,1,.707.707l-1.49,1.49a9.64,9.64,0,0,0,5.991,2.485v-2.1a.5.5,0,0,1,1,0v2.116a9.675,9.675,0,0,0,5.991-2.485l-1.49-1.49a.5.5,0,1,1,.707-.707l1.49,1.49a9.64,9.64,0,0,0,2.485-5.991h-2.1a.5.5,0,0,1-.5-.5A.508.508,0,0,1,118.465,110.389Zm-4,4.639a.49.49,0,0,1-.7-.063l-3.255-3.881a.5.5,0,0,1-.119-.319v-4.319a.5.5,0,1,1,1,0v4.138l3.136,3.743A.492.492,0,0,1,114.465,115.028Z" transform="translate(-98.89 -98.89)"/><path class="a" d="M68.7,56.7a12,12,0,1,0,12,12A12.013,12.013,0,0,0,68.7,56.7Zm0,22.3A10.3,10.3,0,1,1,79,68.7,10.307,10.307,0,0,1,68.7,79Z" transform="translate(-56.7 -56.7)"/></g></g></svg>