<svg xmlns="http://www.w3.org/2000/svg" width="33.301" height="33.301" viewBox="0 0 33.301 33.301"><defs><style>.a{fill:#fff;}.b{fill:#051346;}</style></defs><path class="a" d="M16.65,0A16.65,16.65,0,1,1,0,16.65,16.65,16.65,0,0,1,16.65,0Z" transform="translate(0 0)"/><g transform="translate(6.073 6.13)"><path class="b" d="M18.6,8.1c1.438.076,2.876.076,4.314.076a7.937,7.937,0,0,1,3.481.908,5.225,5.225,0,0,1,2.573,3.784,19.158,19.158,0,0,1,.227,2.876c.076,2.118.076,4.238,0,6.281a9.421,9.421,0,0,1-.454,3.255,5.438,5.438,0,0,1-4.314,3.708,12.66,12.66,0,0,1-2.876.226c-2.119.076-4.163.076-6.282,0a9.421,9.421,0,0,1-3.255-.454,5.334,5.334,0,0,1-3.708-4.238,12.628,12.628,0,0,1-.227-2.877c-.076-2.118-.076-4.238,0-6.281a9.414,9.414,0,0,1,.454-3.254A5.436,5.436,0,0,1,12.85,8.4a12.622,12.622,0,0,1,2.876-.227C16.558,8.1,17.618,8.1,18.6,8.1ZM27.23,18.545h0c-.076-.833-.076-1.664-.076-2.5-.076-.833-.076-1.589-.151-2.422a3.709,3.709,0,0,0-3.027-3.406A12.305,12.305,0,0,0,21.1,9.993c-1.741-.076-3.556-.076-5.221,0a16.562,16.562,0,0,0-2.725.227A3.377,3.377,0,0,0,10.2,12.869a5.244,5.244,0,0,0-.227,1.514C9.9,16.275,9.9,18.242,9.9,20.134c0,1.212.076,2.423.151,3.708A3.561,3.561,0,0,0,13,27.248a12.259,12.259,0,0,0,2.876.228c1.741.076,3.557.076,5.221,0,.833,0,1.665-.076,2.422-.152a3.482,3.482,0,0,0,2.043-.833A3.994,3.994,0,0,0,27,23.464,36.661,36.661,0,0,0,27.23,18.545Z" transform="translate(-8.024 -8.101)"/><path class="b" d="M20.249,14.9A5.412,5.412,0,1,1,14.8,20.2,5.363,5.363,0,0,1,20.249,14.9Zm0,1.892a3.553,3.553,0,0,0-3.557,3.557,3.557,3.557,0,0,0,7.114,0A3.653,3.653,0,0,0,20.249,16.793Z" transform="translate(-9.672 -9.755)"/><path class="b" d="M30.274,14.188A1.287,1.287,0,1,1,28.988,12.9,1.327,1.327,0,0,1,30.274,14.188Z" transform="translate(-12.809 -9.268)"/></g></svg>