<svg xmlns="http://www.w3.org/2000/svg" width="33" height="33" viewBox="0 0 33 33"><defs><style>.a{fill:#fff;}.b{fill:#051346;}</style></defs><g transform="translate(-0.262)"><circle class="a" cx="16.5" cy="16.5" r="16.5" transform="translate(0.262)"/><path class="b" d="M28.242,13.816a7.275,7.275,0,0,1-2.195.605A3.915,3.915,0,0,0,27.713,12.3a6.688,6.688,0,0,1-2.422.908A3.663,3.663,0,0,0,22.566,12a3.747,3.747,0,0,0-3.784,3.784,2.838,2.838,0,0,0,.076.833,10.884,10.884,0,0,1-7.8-3.936,3.932,3.932,0,0,0-.53,1.892,3.7,3.7,0,0,0,1.665,3.1,3.516,3.516,0,0,1-1.741-.454V17.3a3.806,3.806,0,0,0,3.027,3.708,4.345,4.345,0,0,1-.984.152,2.834,2.834,0,0,1-.757-.076A3.847,3.847,0,0,0,15.3,23.731,7.681,7.681,0,0,1,10.608,25.4,3.682,3.682,0,0,1,9.7,25.32a10.727,10.727,0,0,0,5.828,1.664A10.661,10.661,0,0,0,26.275,16.238v-.53A5.883,5.883,0,0,0,28.242,13.816Z" transform="translate(-2.359 -2.918)"/></g></svg>