<svg xmlns="http://www.w3.org/2000/svg" width="33" height="33" viewBox="0 0 33 33"><defs><style>.a{fill:#fff;}.b{fill:#051346;}</style></defs><g transform="translate(-0.393)"><circle class="a" cx="16.5" cy="16.5" r="16.5" transform="translate(0.393)"/><g transform="translate(7.417 7.568)"><path class="b" d="M24.861,21.426H13.206A3.441,3.441,0,0,0,9.8,24.832v2.725a3.44,3.44,0,0,0,3.406,3.406H24.861a3.441,3.441,0,0,0,3.406-3.406V24.832A3.391,3.391,0,0,0,24.861,21.426Zm-9.233,2.043h-1.06v5.374h-1.06V23.469h-1.06v-.907h3.179v.907Zm3.1,5.374h-.984v-.53c-.151.151-.378.378-.53.378a.719.719,0,0,1-.529.151.46.46,0,0,1-.455-.227c-.151-.151-.151-.378-.151-.681V24h.984v3.556c0,.151,0,.151.076.228a.234.234,0,0,0,.151.076c.076,0,.151-.076.227-.151.151-.076.151-.151.3-.227V23.924h.984l-.076,4.919Zm3.33-.909a1,1,0,0,1-.227.757.925.925,0,0,1-.681.228.812.812,0,0,1-.454-.152.754.754,0,0,1-.378-.3v.378h-.984V22.486h.984v2.043a1.342,1.342,0,0,1,.378-.3,1.264,1.264,0,0,1,.378-.151.954.954,0,0,1,.68.3,1.312,1.312,0,0,1,.228.907l.076,2.648Zm3.179-1.286H23.5v.907a1.1,1.1,0,0,0,.151.53c.076.151.151.151.3.151a.393.393,0,0,0,.3-.151.726.726,0,0,0,.151-.53v-.227h.985v.227a1.314,1.314,0,0,1-1.438,1.438,1.439,1.439,0,0,1-.984-.378,1.5,1.5,0,0,1-.378-1.06V25.513a1.6,1.6,0,0,1,.378-.985,1.363,1.363,0,0,1,2.346.985l-.076,1.135Z" transform="translate(-9.8 -12.797)"/><path class="b" d="M28.254,26.025a.392.392,0,0,0-.3.151.582.582,0,0,0-.151.378v.455h.833v-.455c0-.151-.076-.378-.151-.378C28.557,26.1,28.481,26.025,28.254,26.025Z" transform="translate(-14.177 -13.916)"/><path class="b" d="M24.1,26.025c-.076,0-.151,0-.151.076-.076.076-.151.076-.151.152v2.875c.076.076.151.152.227.152a.28.28,0,0,0,.228.076c.151,0,.151-.076.227-.151s.076-.151.076-.3V26.48a.581.581,0,0,0-.151-.378C24.33,26.1,24.254,26.025,24.1,26.025Z" transform="translate(-13.204 -13.916)"/><path class="b" d="M15.862,16.989h1.211V14.112l1.362-4.087H17.225l-.757,2.8h-.076l-.757-2.8H14.5l1.362,4.238Z" transform="translate(-10.943 -10.025)"/><path class="b" d="M21.338,17.6a1.856,1.856,0,0,0,1.135-.378,1.162,1.162,0,0,0,.378-.984V13.588a1.594,1.594,0,0,0-.378-.984,1.8,1.8,0,0,0-1.059-.378,1.856,1.856,0,0,0-1.135.378,1.081,1.081,0,0,0-.378.984v2.649a1.8,1.8,0,0,0,.378,1.06A1.476,1.476,0,0,0,21.338,17.6Zm-.454-4.088c0-.151.076-.151.151-.3a.392.392,0,0,1,.3-.151c.151,0,.227.076.378.151a.391.391,0,0,1,.151.3v2.8a.393.393,0,0,1-.151.3.445.445,0,0,1-.378.151.535.535,0,0,1-.453-.454v-2.8Z" transform="translate(-12.256 -10.56)"/><path class="b" d="M25.657,17.672a2.347,2.347,0,0,0,.605-.151c.227-.151.378-.3.605-.454v.605h1.06V12.526h-1.06v3.936l-.3.3c-.151.076-.227.151-.3.151-.151,0-.151,0-.227-.076a.276.276,0,0,1-.076-.227V12.677H24.9v4.238a1.523,1.523,0,0,0,.151.681C25.2,17.6,25.43,17.672,25.657,17.672Z" transform="translate(-13.472 -10.633)"/></g></g></svg>